<?xml version="1.0" encoding="UTF-8"?><svg id="Logo" xmlns="http://www.w3.org/2000/svg" viewBox="0 0 2000 2000"><defs><style>.cls-1{fill:none;}.cls-1,.cls-2{stroke-width:0px;}.cls-2{fill:#000;}</style></defs><path class="cls-1" d="M782.73,844.27h-435.81c-17.43,0-32.69,6.54-42.85,18.16-10.17,10.9-14.53,26.87-12.35,44.31l36.32,217.18c5.81,47.21,47.94,83.53,91.52,83.53h217.9c46.49,0,98.78-40.68,108.95-85.71l76.99-231.7c2.91-9.44.73-23.24-4.36-31.96-7.99-8.72-20.34-13.8-36.32-13.8Z"/><path class="cls-1" d="M1654.34,844.27h-435.81c-15.98,0-28.33,5.08-36.32,13.8-5.81,8.72-7.26,22.52-3.63,37.04l73.36,221.53c13.07,50.12,81.57,91.35,128.06,91.35l-2,96c.08,1.6.26,9.07.26,9.07.42,1.19,1.66,4.22,4.74,5.93,2.84,1.58,5.72,1.19,7,1,6.07-.9,9.08-5.39,22.68-20.4,3.06-3.38,3.53-3.84,6.83-7.52,2.54-2.82,5.7-6.39,10.96-12.44,0,0,10.34-12.28,58.53-71.65h10l82.7-.56c42.85,0,85.71-36.32,90.79-80.62l37.04-222.99c2.18-14.53-2.18-30.51-12.35-41.4-10.17-11.62-25.42-18.16-42.85-18.16ZM1387.65,1038.66h-55.9v-59.26h55.9v59.26ZM1499.45,1038.66h-55.9v-59.26h55.9v59.26ZM1611.25,1038.66h-55.9v-59.26h55.9v59.26Z"/><path class="cls-2" d="M1806.14,765.82c-37.77-42.13-92.97-66.82-151.81-66.82h-435.81c-61.01,0-115.49,25.42-149.63,69.73-8.72,10.9-15.98,22.52-21.79,35.59-30.51-6.54-62.47-6.54-93.7,0-5.81-13.07-13.07-24.7-21.06-35.59-34.86-44.31-89.34-69.73-149.63-69.73h-435.81c-58.83,0-114.04,24.7-151.81,66.82-37.77,42.13-55.2,100.24-47.21,161.97l36.32,217.18c14.53,116.21,117.67,207.73,235.33,207.73h217.9c113.31,0,222.99-85.71,249.14-191.03l66.82-201.92c27.6-20.34,66.1-20.34,93.7,0l65.37,196.84c27.6,109.68,138.01,196.11,251.31,196.11h217.9c116.94,0,220.81-91.52,234.61-204.83l37.04-222.99c7.26-58.83-10.17-116.94-47.21-159.07ZM823.4,890.03l-76.99,231.7c-10.17,45.03-62.47,85.71-108.95,85.71h-217.9c-43.58,0-85.71-36.32-91.52-83.53l-36.32-217.18c-2.18-17.43,2.18-33.41,12.35-44.31,10.17-11.62,25.42-18.16,42.85-18.16h435.81c15.98,0,28.33,5.08,36.32,13.8,5.08,8.72,7.26,22.52,4.36,31.96ZM1709.54,903.83l-37.04,222.99c-5.08,44.31-47.94,80.62-90.79,80.62l-82.7.56h-10c-48.19,59.38-58.53,71.65-58.53,71.65-5.26,6.04-8.42,9.61-10.96,12.44-3.3,3.67-3.77,4.14-6.83,7.52-13.59,15.01-16.61,19.5-22.68,20.4-1.28.19-4.16.58-7-1-3.08-1.71-4.33-4.74-4.74-5.93,0,0-.18-7.47-.26-9.07l2-96c-46.49,0-114.98-41.24-128.06-91.35l-73.36-221.53c-3.63-14.53-2.18-28.33,3.63-37.04,7.99-8.72,20.34-13.8,36.32-13.8h435.81c17.43,0,32.69,6.54,42.85,18.16,10.17,10.9,14.53,26.87,12.35,41.4Z"/><rect class="cls-2" x="1555.35" y="979.41" width="55.9" height="59.26"/><rect class="cls-2" x="1443.55" y="979.41" width="55.9" height="59.26"/><rect class="cls-2" x="1331.75" y="979.41" width="55.9" height="59.26"/></svg>